<svg width="70" height="48" color="blue" xmlns="http://www.w3.org/2000/svg" viewBox="7241 249 47.033 51.111"><defs><style>.cls-1 { fill: #fff; fill-rule: evenodd; }</style></defs><path id="Path_2675" data-name="Path 2675" class="cls-1" d="M7268.1 279.667v6.667h-7.344v-6.667a6.033 6.033 0 0 0-2.444 5.067 6.167 6.167 0 0 0 12.333-.067 5.844 5.844 0 0 0-2.556-5.033M7278.22 282c4.9-11.778-2.778-23.3-13.89-23.133-10.876.41-18.52 11.344-13.588 23.122-5.3-22.812 30.89-27.223 27.49.043zm-2.222.778c3.844-8.044-3.178-18.122-11.11-17.59-9.145-.843-16.157 10.18-11.845 17.568-2.045-8.367 5.255-14.867 12.21-14.323 5.423.467 11.9 4.856 10.757 14.378zm-2.6 1.556c3.622-6.39-2.222-14.267-8.378-13.856-7.044-.656-13.61 7.478-9.41 13.9a9.056 9.056 0 0 1 9.577-11.3c4.188.367 9.143 3.956 8.22 11.278zm-16.233.533c-1.4-5.333 1.11-9.722 7.422-10 6.32.356 8.655 5.344 7.155 10-.41-4.622-2.944-7.356-6.822-7.778-4.69-.145-7.478 3.277-7.744 7.81zm-16.167-20.9L7264.478 249l23.555 14.99h-9.255c5.344 7.91 3.522 15.555 0 20.455h9.167L7264.5 300.11l-23.378-15.677h9.11c-4-5.556-5.01-12.8 0-20.433z"/></svg>
