<svg width="32" height="32" viewBox="0 0 32 32" fill="none" xmlns="http://www.w3.org/2000/svg">
<g clip-path="url(#clip0_166_1770)">
<path d="M16.0001 20.2667C18.3565 20.2667 20.2667 18.3565 20.2667 16.0001C20.2667 13.6436 18.3565 11.7334 16.0001 11.7334C13.6436 11.7334 11.7334 13.6436 11.7334 16.0001C11.7334 18.3565 13.6436 20.2667 16.0001 20.2667Z" fill="#2A7AE4"/>
<path d="M12 2.66675L9.55996 5.33341H5.33329C3.86663 5.33341 2.66663 6.53341 2.66663 8.00008V24.0001C2.66663 25.4667 3.86663 26.6667 5.33329 26.6667H26.6666C28.1333 26.6667 29.3333 25.4667 29.3333 24.0001V8.00008C29.3333 6.53341 28.1333 5.33341 26.6666 5.33341H22.44L20 2.66675H12ZM16 22.6667C12.32 22.6667 9.33329 19.6801 9.33329 16.0001C9.33329 12.3201 12.32 9.33342 16 9.33342C19.68 9.33342 22.6666 12.3201 22.6666 16.0001C22.6666 19.6801 19.68 22.6667 16 22.6667Z" fill="#2A7AE4"/>
</g>
<defs>
<clipPath id="clip0_166_1770">
<rect width="32" height="32" fill="white"/>
</clipPath>
</defs>
</svg>
